<svg width="21" height="21" viewBox="0 0 21 21" fill="none" xmlns="http://www.w3.org/2000/svg">
<mask id="path-1-inside-1_423_116" fill="white">
<path d="M7.39238 0.107422L20.743 9.79954C20.9937 9.98116 20.9937 10.2721 20.7423 10.4538L7.39187 20.1074L6.45619 19.4523L19.354 10.1253L6.45533 0.760796L7.39238 0.107422Z"/>
</mask>
<path d="M7.39238 0.107422L20.743 9.79954C20.9937 9.98116 20.9937 10.2721 20.7423 10.4538L7.39187 20.1074L6.45619 19.4523L19.354 10.1253L6.45533 0.760796L7.39238 0.107422Z" fill="white"/>
<path d="M7.39238 0.107422L8.56735 -1.51105L7.41577 -2.34706L6.24847 -1.53315L7.39238 0.107422ZM20.743 9.79954L19.568 11.418L19.5695 11.4191L20.743 9.79954ZM20.7423 10.4538L19.5709 8.83268L19.5704 8.83309L20.7423 10.4538ZM7.39187 20.1074L6.2448 21.7458L7.41058 22.562L8.56378 21.7281L7.39187 20.1074ZM6.45619 19.4523L5.28423 17.8317L3.00669 19.4787L5.30912 21.0907L6.45619 19.4523ZM19.354 10.1253L20.526 11.7459L22.7626 10.1285L20.529 8.50686L19.354 10.1253ZM6.45533 0.760796L5.31142 -0.879772L3.00575 0.727886L5.28033 2.37924L6.45533 0.760796ZM6.21742 1.7259L19.568 11.418L21.918 8.18106L8.56735 -1.51105L6.21742 1.7259ZM19.5695 11.4191C19.2788 11.2084 18.9304 10.7667 18.9309 10.1252C18.9314 9.48361 19.2805 9.04256 19.5709 8.83269L21.9137 12.0749C22.4555 11.6834 22.9303 11.006 22.9309 10.1281C22.9315 9.25035 22.4578 8.57225 21.9165 8.17998L19.5695 11.4191ZM19.5704 8.83309L6.21996 18.4867L8.56378 21.7281L21.9142 12.0745L19.5704 8.83309ZM8.53894 18.4691L7.60326 17.814L5.30912 21.0907L6.2448 21.7458L8.53894 18.4691ZM7.62816 21.073L20.526 11.7459L18.182 8.50466L5.28423 17.8317L7.62816 21.073ZM20.529 8.50686L7.63033 -0.857651L5.28033 2.37924L18.179 11.7437L20.529 8.50686ZM7.59924 2.40137L8.5363 1.74799L6.24847 -1.53315L5.31142 -0.879772L7.59924 2.40137Z" fill="white" mask="url(#path-1-inside-1_423_116)"/>
<mask id="path-3-inside-2_423_116" fill="white">
<path d="M1.86797 0.107422L15.2186 9.79954C15.4692 9.98116 15.4692 10.2721 15.2179 10.4538L1.86745 20.1074L0.93178 19.4523L13.8296 10.1253L0.930916 0.760796L1.86797 0.107422Z"/>
</mask>
<path d="M1.86797 0.107422L15.2186 9.79954C15.4692 9.98116 15.4692 10.2721 15.2179 10.4538L1.86745 20.1074L0.93178 19.4523L13.8296 10.1253L0.930916 0.760796L1.86797 0.107422Z" fill="white"/>
<path d="M1.86797 0.107422L3.04293 -1.51105L1.89136 -2.34706L0.72406 -1.53315L1.86797 0.107422ZM15.2186 9.79954L14.0436 11.418L14.0451 11.4191L15.2186 9.79954ZM15.2179 10.4538L14.0465 8.83268L14.046 8.83309L15.2179 10.4538ZM1.86745 20.1074L0.720384 21.7458L1.88616 22.562L3.03936 21.7281L1.86745 20.1074ZM0.93178 19.4523L-0.240188 17.8317L-2.51772 19.4787L-0.21529 21.0907L0.93178 19.4523ZM13.8296 10.1253L15.0015 11.7459L17.2382 10.1285L15.0046 8.50686L13.8296 10.1253ZM0.930916 0.760796L-0.212995 -0.879772L-2.51866 0.727886L-0.244086 2.37924L0.930916 0.760796ZM0.693009 1.7259L14.0436 11.418L16.3935 8.18106L3.04293 -1.51105L0.693009 1.7259ZM14.0451 11.4191C13.7544 11.2084 13.406 10.7667 13.4065 10.1252C13.407 9.48361 13.7561 9.04256 14.0465 8.83269L16.3893 12.0749C16.9311 11.6834 17.4059 11.006 17.4065 10.1281C17.4071 9.25035 16.9334 8.57225 16.3921 8.17998L14.0451 11.4191ZM14.046 8.83309L0.695541 18.4867L3.03936 21.7281L16.3898 12.0745L14.046 8.83309ZM3.01452 18.4691L2.07885 17.814L-0.21529 21.0907L0.720384 21.7458L3.01452 18.4691ZM2.10375 21.073L15.0015 11.7459L12.6576 8.50466L-0.240188 17.8317L2.10375 21.073ZM15.0046 8.50686L2.10592 -0.857651L-0.244086 2.37924L12.6546 11.7437L15.0046 8.50686ZM2.07483 2.40137L3.01188 1.74799L0.72406 -1.53315L-0.212995 -0.879772L2.07483 2.40137Z" fill="white" mask="url(#path-3-inside-2_423_116)"/>
</svg>
