<svg width="40" height="32" viewBox="0 0 40 32" fill="none" xmlns="http://www.w3.org/2000/svg">
<path d="M0.582007 15.5893L9.65088 0.5H29.4703L39.403 15.5895L29.4677 30.95H9.65343L0.582007 15.5893Z" stroke="#DA8506"/>
<path d="M24.8033 8.51284C23.9789 7.74769 21.9636 6.49057 19.5102 6.49057C16.9858 6.49057 15.1816 7.39743 14.1125 8.51284H24.8033ZM23.1605 23.0449L23.9733 25C23.9733 25 27.8602 24.353 30.4201 20.7108C29.9842 11.7934 27.4447 7.2506 27.4447 7.2506C27.4447 7.2506 25.1709 4.25206 22.4856 4L21.6295 6.65803L23.1605 23.0449ZM11.5755 19.4872C13.1813 20.9862 15.6047 22.5464 19.51 22.5464C23.4153 22.5464 25.8388 20.9862 27.4446 19.4872H11.5755ZM17.4533 6.65803L16.5346 4C13.7174 4.32851 11.5755 7.2506 11.5755 7.2506C11.5755 7.2506 9.03595 11.7934 8.6001 20.7108C11.1599 24.3529 15.0469 25 15.0469 25L15.8597 23.0449L17.4533 6.65803ZM15.9611 17.5807C14.9058 17.5807 14.0502 16.485 14.0502 15.1334C14.0502 13.7817 14.9058 12.6861 15.9611 12.6861C17.0165 12.6861 17.8721 13.7819 17.8721 15.1335C17.8721 16.4852 17.0165 17.5807 15.9611 17.5807ZM23.0591 17.5807C22.0037 17.5807 21.1481 16.485 21.1481 15.1334C21.1481 13.7817 22.0037 12.686 23.0591 12.686C24.1144 12.686 24.97 13.7817 24.97 15.1334C24.97 16.485 24.1144 17.5807 23.0591 17.5807Z" stroke="white" stroke-miterlimit="1" stroke-linecap="round" stroke-linejoin="round"/>
</svg>
