<svg width="40" height="32" viewBox="0 0 40 32" fill="none" xmlns="http://www.w3.org/2000/svg">
<path d="M0.582018 15.5882L9.65087 0.5H29.4703L39.403 15.5884L29.4677 30.9478H9.65342L0.582018 15.5882Z" stroke="#DA8506"/>
<path d="M18.71 4.54517C12.6877 4.54517 7.80005 9.43285 7.80005 15.4552C7.80005 21.4775 12.6877 26.3652 18.71 26.3652H24.165V24.1832H18.71C13.9751 24.1832 9.98205 20.1901 9.98205 15.4552C9.98205 10.7202 13.9751 6.72717 18.71 6.72717C23.445 6.72717 27.438 10.7202 27.438 15.4552V17.0153C27.438 17.8772 26.6634 18.7282 25.8015 18.7282C24.9397 18.7282 24.165 17.8772 24.165 17.0153V15.4552C24.165 12.444 21.7212 10.0002 18.71 10.0002C15.6989 10.0002 13.255 12.444 13.255 15.4552C13.255 18.4663 15.6989 20.9102 18.71 20.9102C20.2156 20.9102 21.5903 20.2992 22.5722 19.3064C23.2813 20.2774 24.5033 20.9102 25.8015 20.9102C27.9508 20.9102 29.62 19.1646 29.62 17.0153V15.4552C29.62 9.43285 24.7324 4.54517 18.71 4.54517ZM18.71 18.7282C16.899 18.7282 15.437 17.2662 15.437 15.4552C15.437 13.6441 16.899 12.1822 18.71 12.1822C20.5211 12.1822 21.983 13.6441 21.983 15.4552C21.983 17.2662 20.5211 18.7282 18.71 18.7282Z" fill="white" fill-opacity="0.9"/>
</svg>
