<svg width="40" height="32" viewBox="0 0 40 32" fill="none" xmlns="http://www.w3.org/2000/svg">
<path d="M0.582018 15.5882L9.65087 0.5H29.4703L39.403 15.5884L29.4677 30.9478H9.65342L0.582018 15.5882Z" stroke="#DA8506"/>
<path d="M25.4915 7.36328C24.5193 7.36328 23.7285 8.15413 23.7285 9.12608C23.7285 10.0982 24.5193 10.889 25.4915 10.889C26.4637 10.889 27.2546 10.0982 27.2546 9.12608C27.2546 8.15396 26.4637 7.36328 25.4915 7.36328ZM25.4915 9.6098C25.2248 9.6098 25.0077 9.39274 25.0077 9.12608C25.0077 8.85924 25.2248 8.64235 25.4915 8.64235C25.7583 8.64235 25.9754 8.85924 25.9754 9.12608C25.9754 9.39274 25.7583 9.6098 25.4915 9.6098Z" fill="white"/>
<path d="M19.3828 9.48193C16.0929 9.48193 13.4165 12.1581 13.4165 15.4477C13.4165 18.7372 16.0929 21.4134 19.3828 21.4134C22.6727 21.4134 25.3491 18.7372 25.3491 15.4477C25.3491 12.1581 22.6727 9.48193 19.3828 9.48193ZM19.3828 20.1343C16.7984 20.1343 14.6957 18.0319 14.6957 15.4477C14.6957 12.8636 16.7984 10.761 19.3828 10.761C21.9673 10.761 24.0699 12.8636 24.0699 15.4477C24.0699 18.0319 21.9673 20.1343 19.3828 20.1343Z" fill="white"/>
<path d="M24.3862 4.53857H14.3791C11.1222 4.53857 8.47266 7.18794 8.47266 10.4445V20.4509C8.47266 23.7073 11.1222 26.3567 14.3791 26.3567H24.3863C27.6431 26.3567 30.2927 23.7073 30.2927 20.4509V10.4445C30.2927 7.18794 27.6431 4.53857 24.3862 4.53857V4.53857ZM29.0135 20.4509C29.0135 23.002 26.9377 25.0776 24.3862 25.0776H14.3791C11.8276 25.0776 9.75184 23.002 9.75184 20.4509V10.4445C9.75184 7.89322 11.8276 5.81765 14.3791 5.81765H24.3863C26.9377 5.81765 29.0135 7.89322 29.0135 10.4445V20.4509Z" fill="white"/>
</svg>
