<svg width="40" height="32" viewBox="0 0 40 32" fill="none" xmlns="http://www.w3.org/2000/svg">
<path d="M0.582018 15.5882L9.65087 0.5H29.4703L39.403 15.5884L29.4677 30.9478H9.65342L0.582018 15.5882Z" stroke="#DA8506"/>
<path d="M19.6367 10.8384C19.8225 10.7276 19.8959 10.5657 19.991 10.4336C20.4619 9.7944 21.0451 9.30008 21.7708 8.94638C22.7644 8.46485 23.8185 8.41371 24.8812 8.51172C25.6976 8.58417 26.4709 8.8569 27.1751 9.30008C28.0131 9.82849 28.6136 10.5614 29.024 11.4393C29.2746 11.972 29.4387 12.5387 29.5381 13.1268C29.6288 13.6765 29.6979 14.2177 29.6979 14.7759C29.6936 17.5458 29.6936 20.3157 29.7022 23.0856C29.7022 23.2816 29.6461 23.3328 29.4517 23.3285C28.1255 23.32 26.8035 23.32 25.4773 23.3285C25.2829 23.3285 25.2397 23.2731 25.2397 23.0899C25.244 20.4776 25.257 17.8612 25.2354 15.2489C25.2311 14.6566 25.149 14.0685 24.838 13.5274C24.5615 13.0501 24.177 12.7092 23.6716 12.5131C22.9934 12.2489 22.2935 12.1978 21.585 12.3938C20.8679 12.5899 20.3711 13.0543 20.0169 13.685C19.8182 14.0387 19.7491 14.4095 19.6929 14.8058C19.6367 15.2319 19.6454 15.6495 19.6454 16.0714C19.6367 18.4024 19.6367 20.7291 19.6454 23.06C19.6454 23.2731 19.5935 23.3328 19.3732 23.3285C18.0643 23.3157 16.751 23.32 15.4421 23.3285C15.2606 23.3285 15.1958 23.2731 15.2002 23.1069C15.2045 22.9876 15.2131 22.8683 15.2131 22.7489C15.2131 18.2532 15.2174 13.7575 15.2088 9.26173C15.2088 9.07423 15.2477 9.00604 15.455 9.00604C16.7726 9.01457 18.0902 9.01457 19.4078 9.00604C19.5849 9.00604 19.6454 9.04866 19.6411 9.2319C19.6281 9.75178 19.6367 10.2759 19.6367 10.8384Z" fill="white"/>
<path d="M12.4139 9.13377C12.4139 9.28291 12.4183 9.43206 12.4183 9.58121C12.4183 14.0684 12.4183 18.5556 12.4183 23.0471C12.4183 23.3198 12.4183 23.3198 12.1375 23.3198C10.7637 23.3198 9.3857 23.3198 8.01198 23.3198C8.00766 23.2133 8.00334 23.1068 8.00334 23.0002C8.00334 19.6423 8.00334 16.2886 8.00334 12.9306C8.00334 11.7332 8.00766 10.5315 7.99902 9.33405C7.99902 9.18064 8.0379 9.12524 8.20206 9.12524C9.60602 9.13377 11.01 9.12951 12.4139 9.13377Z" fill="white"/>
<path d="M12.414 9.13382C11.01 9.13382 9.61031 9.13382 8.20632 9.1253C8.04216 9.1253 8.00328 9.17643 8.00328 9.33411C8.0076 10.5315 8.00328 11.729 8.00328 12.9307C8.00328 16.2886 8.00328 19.6423 8.00328 23.0003C8.00328 23.1068 8.0076 23.2134 8.01192 23.3199C7.93848 23.3242 7.88232 23.3071 7.88232 23.2219C7.88232 23.1665 7.88232 23.1068 7.88232 23.0514C7.88232 18.5003 7.88232 13.9534 7.88232 9.40229C7.88232 9.07842 7.91256 9.04859 8.23656 9.04859C9.55415 9.04859 10.8717 9.04859 12.185 9.05286C12.2628 9.04859 12.3794 8.98894 12.414 9.13382Z" fill="#E0E0E0"/>
</svg>
