<svg width="40" height="32" viewBox="0 0 40 32" fill="none" xmlns="http://www.w3.org/2000/svg">
<path d="M0.582018 15.5882L9.65087 0.5H29.4703L39.403 15.5884L29.4677 30.9478H9.65342L0.582018 15.5882Z" stroke="#DA8506"/>
<path d="M19.3178 5C17.9629 4.99994 16.6213 5.26674 15.3695 5.78518C14.1177 6.30362 12.9803 7.06355 12.0222 8.02156C11.0641 8.97958 10.3041 10.1169 9.78552 11.3687C9.26698 12.6204 9.00005 13.962 9 15.3169C9.00316 16.8627 9.35361 18.388 10.0255 19.7802L9.17846 24.8632L13.9702 24.1262C15.5814 25.1083 17.431 25.6297 19.3178 25.6338C22.054 25.6337 24.6781 24.5467 26.6128 22.6119C28.5476 20.6772 29.6346 18.0531 29.6347 15.3169C29.6346 12.5807 28.5476 9.95665 26.6128 8.02187C24.6781 6.0871 22.054 5.00011 19.3178 5V5Z" fill="white"/>
<path d="M19.3024 6.45255C14.3794 6.45227 10.3884 10.443 10.3882 15.3659C10.391 16.7015 10.6939 18.0194 11.2745 19.2222L10.5421 23.6131L14.6823 22.9768C16.0742 23.8253 17.6722 24.2758 19.3024 24.2793C24.225 24.2791 28.2156 20.2886 28.2158 15.3659C28.2156 10.4433 24.225 6.45273 19.3024 6.45255Z" stroke="black"/>
<path d="M19.4277 8.49817C15.7037 8.49796 12.6847 11.5167 12.6846 15.2407C12.6867 16.251 12.9158 17.2479 13.355 18.1578L12.801 21.4793L15.9328 20.9979C16.9858 21.6397 18.1946 21.9805 19.4277 21.9832C23.1514 21.9831 26.1701 18.9644 26.1702 15.2407C26.1701 11.517 23.1514 8.49831 19.4277 8.49817Z" stroke="black" stroke-linecap="round" stroke-dasharray="2 4"/>
</svg>
