<svg width="40" height="32" viewBox="0 0 40 32" fill="none" xmlns="http://www.w3.org/2000/svg">
<path d="M0.582018 15.5882L9.65087 0.5H29.4703L39.403 15.5884L29.4677 30.9478H9.65342L0.582018 15.5882Z" stroke="#DA8506"/>
<g clip-path="url(#clip0_426_417)">
<path d="M16.0636 4.53868C15.4346 4.53868 14.8313 4.78857 14.3865 5.23337C13.9417 5.67817 13.6918 6.28145 13.6918 6.9105C13.6918 7.53954 13.9417 8.14283 14.3865 8.58763C14.8313 9.03243 15.4346 9.28232 16.0636 9.28232H18.4345V6.90959C18.4345 6.28079 18.1848 5.67774 17.7401 5.2331C17.2955 4.78847 16.6924 4.53868 16.0636 4.53868V4.53868ZM21.7545 4.53868C20.4455 4.53868 19.3836 5.6005 19.3836 6.90959V12.6005C19.3836 13.2295 19.6335 13.8328 20.0783 14.2776C20.5231 14.7224 21.1264 14.9723 21.7555 14.9723C22.3845 14.9723 22.9878 14.7224 23.4326 14.2776C23.8774 13.8328 24.1273 13.2295 24.1273 12.6005V6.90959C24.1273 5.6005 23.0655 4.53868 21.7545 4.53868V4.53868ZM10.3727 10.2296C9.74344 10.2296 9.13993 10.4796 8.69496 10.9245C8.24998 11.3695 8 11.973 8 12.6023C8 13.2316 8.24998 13.8351 8.69496 14.2801C9.13993 14.7251 9.74344 14.975 10.3727 14.975H16.0636C16.6929 14.975 17.2964 14.7251 17.7414 14.2801C18.1864 13.8351 18.4364 13.2316 18.4364 12.6023C18.4364 11.973 18.1864 11.3695 17.7414 10.9245C17.2964 10.4796 16.6929 10.2296 16.0636 10.2296H10.3727V10.2296ZM27.4455 10.2296C26.1364 10.2296 25.0745 11.2914 25.0745 12.6023V14.9732H27.4473C28.0763 14.9732 28.6796 14.7233 29.1244 14.2785C29.5692 13.8337 29.8191 13.2305 29.8191 12.6014C29.8191 11.9724 29.5692 11.3691 29.1244 10.9243C28.6796 10.4795 28.0763 10.2296 27.4473 10.2296H27.4455ZM10.3727 15.9205C9.90388 15.9205 9.44556 16.0595 9.05571 16.3199C8.66586 16.5804 8.36197 16.9506 8.18247 17.3837C8.00297 17.8168 7.95591 18.2934 8.04724 18.7533C8.13858 19.2131 8.3642 19.6356 8.6956 19.9673C9.027 20.2989 9.44928 20.5249 9.90907 20.6165C10.3689 20.7082 10.8455 20.6615 11.2788 20.4824C11.712 20.3032 12.0824 19.9996 12.3432 19.6099C12.6039 19.2203 12.7433 18.7621 12.7436 18.2932V15.9223H10.3709L10.3727 15.9205ZM16.0636 15.9205C14.7545 15.9205 13.6909 16.9841 13.6909 18.2932V23.9841C13.6909 24.6134 13.9409 25.2169 14.3859 25.6619C14.8308 26.1069 15.4343 26.3569 16.0636 26.3569C16.6929 26.3569 17.2964 26.1069 17.7414 25.6619C18.1864 25.2169 18.4364 24.6134 18.4364 23.9841V18.2932C18.4364 16.9841 17.3727 15.9223 16.0636 15.9223V15.9205ZM21.7545 15.9205C21.1253 15.9205 20.5217 16.1705 20.0768 16.6155C19.6318 17.0604 19.3818 17.6639 19.3818 18.2932C19.3818 18.9225 19.6318 19.526 20.0768 19.971C20.5217 20.416 21.1253 20.666 21.7545 20.666H27.4455C28.0747 20.666 28.6783 20.416 29.1232 19.971C29.5682 19.526 29.8182 18.9225 29.8182 18.2932C29.8182 17.6639 29.5682 17.0604 29.1232 16.6155C28.6783 16.1705 28.0747 15.9205 27.4455 15.9205H21.7545V15.9205ZM19.3836 21.615V23.9878C19.3847 24.4565 19.5247 24.9143 19.7859 25.3035C20.047 25.6927 20.4177 25.9957 20.851 26.1743C21.2843 26.3529 21.7609 26.3991 22.2204 26.307C22.68 26.2149 23.1019 25.9887 23.433 25.6569C23.764 25.3251 23.9892 24.9026 24.0803 24.4429C24.1713 23.9831 24.1241 23.5067 23.9445 23.0738C23.7648 22.6408 23.461 22.2709 23.0712 22.0106C22.6814 21.7503 22.2232 21.6114 21.7545 21.6114H19.3836V21.615Z" fill="white"/>
</g>
<defs>
<clipPath id="clip0_426_417">
<rect width="21.8182" height="21.8182" fill="white" transform="translate(8 4.53868)"/>
</clipPath>
</defs>
</svg>
