<svg width="40" height="32" viewBox="0 0 40 32" fill="none" xmlns="http://www.w3.org/2000/svg">
<path d="M0.582007 15.5893L9.65088 0.5H29.4703L39.403 15.5895L29.4677 30.95H9.65343L0.582007 15.5893Z" stroke="#DA8506"/>
<path d="M28.912 4.45466C28.7232 4.22965 28.4253 4.16932 28.1786 4.28409L7.63725 13.856C7.40968 13.9621 7.26009 14.1994 7.25455 14.4643C7.24901 14.7288 7.38837 14.9728 7.61168 15.0899L12.5165 17.6575L13.7387 25.4629C13.7783 25.7591 13.997 25.9973 14.2816 26.0404C14.4862 26.0717 14.6895 25.995 14.8301 25.8408L18.7023 21.719L24.228 25.9206C24.4053 26.0549 24.6337 26.0844 24.8349 25.9996C25.0364 25.9147 25.1839 25.7265 25.2265 25.5001L29.062 5.04077C29.0999 4.83799 29.0509 4.62069 28.912 4.45466ZM13.0227 16.4059L9.41097 14.5151L23.6799 7.86606L13.0227 16.4059ZM15.0232 18.4287L14.4287 21.5929L13.7873 17.4965L21.6275 11.214L15.1975 18.0817C15.1071 18.1778 15.047 18.303 15.0232 18.4287ZM15.4123 23.2963L16.0831 19.7275L17.6475 20.9169L15.4123 23.2963ZM24.1662 24.2009L16.6345 18.4745L27.394 6.98327L24.1662 24.2009Z" fill="white"/>
</svg>
