<svg width="40" height="32" viewBox="0 0 40 32" fill="none" xmlns="http://www.w3.org/2000/svg">
<path d="M0.582007 15.5893L9.65088 0.5H29.4703L39.403 15.5895L29.4677 30.95H9.65343L0.582007 15.5893Z" stroke="#DA8506"/>
<path d="M14.0474 11.0379C14.2207 10.8739 14.8069 10.4445 14.8069 10.4445C14.9076 10.3666 15.0237 10.3085 15.1485 10.2737C15.2733 10.2389 15.4042 10.2281 15.5335 10.2419C15.6627 10.2557 15.7878 10.2939 15.9012 10.3542C16.0146 10.4145 16.1141 10.4956 16.1939 10.5928L17.5313 12.2012C17.6811 12.385 17.7567 12.6133 17.7446 12.8451C17.7325 13.077 17.6335 13.2971 17.4652 13.4661L16.8296 14.0985C16.7405 14.1826 16.6791 14.2893 16.6527 14.4056C16.6264 14.522 16.6362 14.6431 16.6809 14.7543C16.9553 15.45 17.3609 16.0929 17.878 16.6516C18.5184 17.223 19.2214 17.7281 19.975 18.1585C20.1508 18.2539 20.3547 18.2925 20.5558 18.2685C20.7568 18.2446 20.9442 18.1594 21.0895 18.0257L21.6839 17.487C21.8337 17.3332 22.0369 17.2352 22.2565 17.2108C22.4761 17.1865 22.6977 17.2374 22.881 17.3543L24.6395 18.463C24.7611 18.5402 24.8648 18.64 24.9444 18.7563C25.0239 18.8726 25.0777 19.0029 25.1024 19.1395C25.1271 19.276 25.1222 19.4158 25.0881 19.5505C25.0539 19.6852 24.9912 19.8119 24.9037 19.923L24.59 20.329C24.2809 20.7203 23.8374 20.9974 23.3357 21.1128C22.8339 21.2283 22.3053 21.1747 21.8408 20.9614C20.0903 20.2278 18.4871 19.2135 17.102 17.9633C16.0139 16.7846 15.0618 15.4994 14.262 14.1297L13.6015 12.7868C13.4893 12.5564 13.4483 12.3007 13.4834 12.0492C13.5185 11.7977 13.6281 11.5608 13.7997 11.3658C13.8725 11.2502 13.9553 11.1405 14.0474 11.0379ZM23.9543 15.3087C23.9543 15.1994 23.9543 15.0979 23.9543 14.9886C23.9543 13.9599 23.5251 12.9728 22.7599 12.2418C21.9947 11.5108 20.9553 11.095 19.8677 11.0847H19.686C19.6298 11.0887 19.5773 11.1126 19.539 11.1517C19.5007 11.1908 19.4795 11.2422 19.4797 11.2955C19.4807 11.3229 19.4875 11.3498 19.4998 11.3746C19.5121 11.3993 19.5296 11.4215 19.5512 11.4398C19.5728 11.458 19.5981 11.4719 19.6255 11.4807C19.6529 11.4894 19.682 11.4928 19.7108 11.4907H19.8677C20.837 11.4928 21.766 11.8579 22.4514 12.5061C23.1368 13.1543 23.5228 14.0328 23.525 14.9495C23.525 15.0432 23.525 15.1447 23.525 15.2384C23.5227 15.2651 23.5261 15.2919 23.5348 15.3174C23.5436 15.3428 23.5576 15.3664 23.576 15.3867C23.5944 15.407 23.6169 15.4237 23.6421 15.4357C23.6674 15.4478 23.6949 15.455 23.7231 15.457C23.7713 15.4587 23.8187 15.445 23.8577 15.4181C23.8966 15.3911 23.9248 15.3526 23.9378 15.3087H23.9543ZM22.3939 14.848C22.4019 14.7597 22.4019 14.6709 22.3939 14.5826C22.3918 14.0324 22.1597 13.5053 21.7483 13.1163C21.337 12.7272 20.7797 12.5078 20.1979 12.5057H20.0576C20.0007 12.5134 19.9489 12.5409 19.9123 12.5827C19.8756 12.6246 19.8568 12.6779 19.8594 12.7321C19.8625 12.7589 19.8711 12.7848 19.8849 12.8083C19.8986 12.8318 19.9172 12.8526 19.9394 12.8693C19.9617 12.886 19.9873 12.8983 20.0146 12.9056C20.042 12.9129 20.0706 12.915 20.0988 12.9117H20.1979C20.4295 12.9117 20.6589 12.955 20.8728 13.0391C21.0866 13.1231 21.2809 13.2463 21.4443 13.4016C21.6077 13.5568 21.737 13.7411 21.8249 13.9437C21.9128 14.1464 21.9575 14.3635 21.9564 14.5826C21.9605 14.6528 21.9605 14.7232 21.9564 14.7934C21.9517 14.8201 21.9527 14.8474 21.9593 14.8737C21.966 14.9 21.9781 14.9248 21.995 14.9467C22.012 14.9685 22.0333 14.9869 22.0579 15.0008C22.0824 15.0147 22.1097 15.0238 22.138 15.0276C22.1662 15.0309 22.1949 15.0288 22.2222 15.0215C22.2496 15.0142 22.2751 15.0019 22.2974 14.9851C22.3197 14.9684 22.3382 14.9477 22.352 14.9242C22.3657 14.9006 22.3744 14.8748 22.3774 14.848H22.3939ZM25.3578 15.7459C25.3578 15.5507 25.3578 15.3477 25.3578 15.1525C25.3515 13.6991 24.7426 12.3059 23.6621 11.2723C22.5815 10.2387 21.1154 9.64716 19.5787 9.62469H19.2485C19.2206 9.62566 19.1933 9.63195 19.1681 9.64319C19.1429 9.65442 19.1203 9.67037 19.1018 9.69007C19.0833 9.70977 19.0692 9.73281 19.0604 9.7578C19.0515 9.7828 19.0481 9.80923 19.0504 9.8355C19.0545 9.88866 19.0798 9.93835 19.1212 9.97456C19.1626 10.0108 19.2169 10.0308 19.2733 10.0307H19.5787C21.018 10.0307 22.3985 10.5709 23.417 11.5327C24.4355 12.4944 25.0088 13.7991 25.011 15.1603C25.011 15.3399 25.011 15.5273 25.011 15.7147C25.0076 15.7409 25.0098 15.7676 25.0176 15.793C25.0254 15.8184 25.0386 15.8421 25.0564 15.8625C25.0741 15.883 25.0961 15.8998 25.1209 15.9119C25.1458 15.9241 25.173 15.9314 25.2009 15.9333C25.244 15.9207 25.2821 15.8961 25.3101 15.8627C25.3381 15.8292 25.3547 15.7885 25.3578 15.7459ZM22.3527 14.848C22.3606 14.7597 22.3606 14.6709 22.3527 14.5826C22.3505 14.0324 22.1184 13.5053 21.7071 13.1163C21.2957 12.7272 20.7384 12.5078 20.1566 12.5057H20.0163C19.9594 12.5134 19.9076 12.5409 19.871 12.5827C19.8343 12.6246 19.8155 12.6779 19.8181 12.7321C19.8212 12.7589 19.8299 12.7848 19.8436 12.8083C19.8573 12.8318 19.8759 12.8526 19.8982 12.8693C19.9204 12.886 19.946 12.8983 19.9734 12.9056C20.0007 12.9129 20.0293 12.915 20.0576 12.9117H20.1566C20.3883 12.9117 20.6176 12.955 20.8315 13.0391C21.0454 13.1231 21.2396 13.2463 21.403 13.4016C21.5664 13.5568 21.6957 13.7411 21.7836 13.9437C21.8715 14.1464 21.9162 14.3635 21.9151 14.5826C21.9192 14.6528 21.9192 14.7232 21.9151 14.7934C21.9104 14.8201 21.9114 14.8474 21.9181 14.8737C21.9247 14.9 21.9368 14.9248 21.9538 14.9467C21.9707 14.9685 21.9921 14.9869 22.0166 15.0008C22.0412 15.0147 22.0684 15.0238 22.0967 15.0276C22.1278 15.0372 22.1608 15.0399 22.1932 15.0356C22.2255 15.0313 22.2564 15.0201 22.2835 15.0027C22.3106 14.9854 22.3331 14.9625 22.3494 14.9357C22.3657 14.9088 22.3753 14.8789 22.3774 14.848H22.3527ZM30.4681 13.3958L30.3855 17.9633C30.3855 22.1014 26.4062 24.8809 22.0307 24.8809H17.7707L15.5747 27.27C15.4468 27.4028 15.2799 27.4962 15.0953 27.5383C14.9108 27.5804 14.7171 27.5692 14.5394 27.5062C14.3616 27.4431 14.2079 27.3312 14.0981 27.1847C13.9884 27.0382 13.9275 26.864 13.9235 26.6845V24.3422C12.3978 23.8131 11.0784 22.8575 10.1405 21.6024C9.20267 20.3473 8.69079 18.852 8.67285 17.3152V13.5285C8.67285 9.19527 11.323 6.03316 16.8791 5.7677C18.0431 5.71305 21.5519 5.7677 21.5519 5.7677C27.3474 5.72085 30.4929 8.88296 30.4929 13.3958H30.4681ZM28.8665 13.7393C28.8169 9.531 26.1833 7.28239 21.2299 7.28239C21.2299 7.28239 18.2578 7.28239 17.2671 7.28239C12.5283 7.501 10.357 10.2025 10.357 13.794V16.9873C10.306 18.2748 10.6932 19.5437 11.4615 20.6076C12.2298 21.6715 13.3387 22.4742 14.6253 22.8977V26.7001C14.6234 26.7362 14.6336 26.7719 14.6545 26.8022C14.6754 26.8325 14.7058 26.8557 14.7415 26.8687C14.7771 26.8817 14.8162 26.8837 14.8532 26.8744C14.8901 26.8652 14.923 26.8452 14.9472 26.8172L16.747 24.8497L18.233 23.2257H21.7087C25.7293 23.2257 28.8334 20.8834 28.8334 17.487L28.8665 13.7393Z" fill="white"/>
</svg>
