<svg width="1110" height="9" viewBox="0 0 1110 9" fill="none" xmlns="http://www.w3.org/2000/svg">
<path d="M8.952 3.8L8.544 2.528L5.376 3.656L5.472 0.271999H4.152L4.224 3.656L1.056 2.528L0.672 3.8L3.864 4.784L1.824 7.472L2.904 8.24L4.8 5.456L6.696 8.24L7.776 7.472L5.736 4.784L8.952 3.8ZM18.6083 3.8L18.2003 2.528L15.0323 3.656L15.1283 0.271999H13.8083L13.8803 3.656L10.7123 2.528L10.3283 3.8L13.5203 4.784L11.4803 7.472L12.5603 8.24L14.4563 5.456L16.3523 8.24L17.4323 7.472L15.3923 4.784L18.6083 3.8ZM28.2645 3.8L27.8565 2.528L24.6885 3.656L24.7845 0.271999H23.4645L23.5365 3.656L20.3685 2.528L19.9845 3.8L23.1765 4.784L21.1365 7.472L22.2165 8.24L24.1125 5.456L26.0085 8.24L27.0885 7.472L25.0485 4.784L28.2645 3.8ZM37.9208 3.8L37.5128 2.528L34.3448 3.656L34.4408 0.271999H33.1208L33.1928 3.656L30.0248 2.528L29.6408 3.8L32.8328 4.784L30.7928 7.472L31.8728 8.24L33.7688 5.456L35.6648 8.24L36.7448 7.472L34.7048 4.784L37.9208 3.8ZM47.577 3.8L47.169 2.528L44.001 3.656L44.097 0.271999H42.777L42.849 3.656L39.681 2.528L39.297 3.8L42.489 4.784L40.449 7.472L41.529 8.24L43.425 5.456L45.321 8.24L46.401 7.472L44.361 4.784L47.577 3.8ZM57.2333 3.8L56.8253 2.528L53.6573 3.656L53.7533 0.271999H52.4333L52.5053 3.656L49.3373 2.528L48.9533 3.8L52.1453 4.784L50.1053 7.472L51.1853 8.24L53.0813 5.456L54.9773 8.24L56.0573 7.472L54.0173 4.784L57.2333 3.8ZM66.8895 3.8L66.4815 2.528L63.3135 3.656L63.4095 0.271999H62.0895L62.1615 3.656L58.9935 2.528L58.6095 3.8L61.8015 4.784L59.7615 7.472L60.8415 8.24L62.7375 5.456L64.6335 8.24L65.7135 7.472L63.6735 4.784L66.8895 3.8ZM76.5458 3.8L76.1378 2.528L72.9698 3.656L73.0658 0.271999H71.7458L71.8178 3.656L68.6498 2.528L68.2658 3.8L71.4578 4.784L69.4178 7.472L70.4978 8.24L72.3938 5.456L74.2898 8.24L75.3698 7.472L73.3298 4.784L76.5458 3.8ZM86.202 3.8L85.794 2.528L82.626 3.656L82.722 0.271999H81.402L81.474 3.656L78.306 2.528L77.922 3.8L81.114 4.784L79.074 7.472L80.154 8.24L82.05 5.456L83.946 8.24L85.026 7.472L82.986 4.784L86.202 3.8ZM95.8583 3.8L95.4503 2.528L92.2823 3.656L92.3783 0.271999H91.0583L91.1303 3.656L87.9623 2.528L87.5783 3.8L90.7703 4.784L88.7303 7.472L89.8103 8.24L91.7063 5.456L93.6023 8.24L94.6823 7.472L92.6423 4.784L95.8583 3.8ZM105.515 3.8L105.107 2.528L101.939 3.656L102.035 0.271999H100.715L100.787 3.656L97.6185 2.528L97.2345 3.8L100.427 4.784L98.3865 7.472L99.4665 8.24L101.363 5.456L103.259 8.24L104.339 7.472L102.299 4.784L105.515 3.8ZM115.171 3.8L114.763 2.528L111.595 3.656L111.691 0.271999H110.371L110.443 3.656L107.275 2.528L106.891 3.8L110.083 4.784L108.043 7.472L109.123 8.24L111.019 5.456L112.915 8.24L113.995 7.472L111.955 4.784L115.171 3.8ZM124.827 3.8L124.419 2.528L121.251 3.656L121.347 0.271999H120.027L120.099 3.656L116.931 2.528L116.547 3.8L119.739 4.784L117.699 7.472L118.779 8.24L120.675 5.456L122.571 8.24L123.651 7.472L121.611 4.784L124.827 3.8ZM134.483 3.8L134.075 2.528L130.907 3.656L131.003 0.271999H129.683L129.755 3.656L126.587 2.528L126.203 3.8L129.395 4.784L127.355 7.472L128.435 8.24L130.331 5.456L132.227 8.24L133.307 7.472L131.267 4.784L134.483 3.8ZM144.14 3.8L143.732 2.528L140.564 3.656L140.66 0.271999H139.34L139.412 3.656L136.244 2.528L135.86 3.8L139.052 4.784L137.012 7.472L138.092 8.24L139.988 5.456L141.884 8.24L142.964 7.472L140.924 4.784L144.14 3.8ZM153.796 3.8L153.388 2.528L150.22 3.656L150.316 0.271999H148.996L149.068 3.656L145.9 2.528L145.516 3.8L148.708 4.784L146.668 7.472L147.748 8.24L149.644 5.456L151.54 8.24L152.62 7.472L150.58 4.784L153.796 3.8ZM163.452 3.8L163.044 2.528L159.876 3.656L159.972 0.271999H158.652L158.724 3.656L155.556 2.528L155.172 3.8L158.364 4.784L156.324 7.472L157.404 8.24L159.3 5.456L161.196 8.24L162.276 7.472L160.236 4.784L163.452 3.8ZM173.108 3.8L172.7 2.528L169.532 3.656L169.628 0.271999H168.308L168.38 3.656L165.212 2.528L164.828 3.8L168.02 4.784L165.98 7.472L167.06 8.24L168.956 5.456L170.852 8.24L171.932 7.472L169.892 4.784L173.108 3.8ZM182.765 3.8L182.357 2.528L179.189 3.656L179.285 0.271999H177.965L178.037 3.656L174.869 2.528L174.485 3.8L177.677 4.784L175.637 7.472L176.717 8.24L178.613 5.456L180.509 8.24L181.589 7.472L179.549 4.784L182.765 3.8ZM192.421 3.8L192.013 2.528L188.845 3.656L188.941 0.271999H187.621L187.693 3.656L184.525 2.528L184.141 3.8L187.333 4.784L185.293 7.472L186.373 8.24L188.269 5.456L190.165 8.24L191.245 7.472L189.205 4.784L192.421 3.8ZM202.077 3.8L201.669 2.528L198.501 3.656L198.597 0.271999H197.277L197.349 3.656L194.181 2.528L193.797 3.8L196.989 4.784L194.949 7.472L196.029 8.24L197.925 5.456L199.821 8.24L200.901 7.472L198.861 4.784L202.077 3.8ZM211.733 3.8L211.325 2.528L208.157 3.656L208.253 0.271999H206.933L207.005 3.656L203.837 2.528L203.453 3.8L206.645 4.784L204.605 7.472L205.685 8.24L207.581 5.456L209.477 8.24L210.557 7.472L208.517 4.784L211.733 3.8ZM221.39 3.8L220.982 2.528L217.814 3.656L217.91 0.271999H216.59L216.662 3.656L213.494 2.528L213.11 3.8L216.302 4.784L214.262 7.472L215.342 8.24L217.238 5.456L219.134 8.24L220.214 7.472L218.174 4.784L221.39 3.8ZM231.046 3.8L230.638 2.528L227.47 3.656L227.566 0.271999H226.246L226.318 3.656L223.15 2.528L222.766 3.8L225.958 4.784L223.918 7.472L224.998 8.24L226.894 5.456L228.79 8.24L229.87 7.472L227.83 4.784L231.046 3.8ZM240.702 3.8L240.294 2.528L237.126 3.656L237.222 0.271999H235.902L235.974 3.656L232.806 2.528L232.422 3.8L235.614 4.784L233.574 7.472L234.654 8.24L236.55 5.456L238.446 8.24L239.526 7.472L237.486 4.784L240.702 3.8ZM250.358 3.8L249.95 2.528L246.782 3.656L246.878 0.271999H245.558L245.63 3.656L242.462 2.528L242.078 3.8L245.27 4.784L243.23 7.472L244.31 8.24L246.206 5.456L248.102 8.24L249.182 7.472L247.142 4.784L250.358 3.8ZM260.015 3.8L259.607 2.528L256.439 3.656L256.535 0.271999H255.215L255.287 3.656L252.119 2.528L251.735 3.8L254.927 4.784L252.887 7.472L253.967 8.24L255.863 5.456L257.759 8.24L258.839 7.472L256.799 4.784L260.015 3.8ZM269.671 3.8L269.263 2.528L266.095 3.656L266.191 0.271999H264.871L264.943 3.656L261.775 2.528L261.391 3.8L264.583 4.784L262.543 7.472L263.623 8.24L265.519 5.456L267.415 8.24L268.495 7.472L266.455 4.784L269.671 3.8ZM279.327 3.8L278.919 2.528L275.751 3.656L275.847 0.271999H274.527L274.599 3.656L271.431 2.528L271.047 3.8L274.239 4.784L272.199 7.472L273.279 8.24L275.175 5.456L277.071 8.24L278.151 7.472L276.111 4.784L279.327 3.8ZM288.983 3.8L288.575 2.528L285.407 3.656L285.503 0.271999H284.183L284.255 3.656L281.087 2.528L280.703 3.8L283.895 4.784L281.855 7.472L282.935 8.24L284.831 5.456L286.727 8.24L287.807 7.472L285.767 4.784L288.983 3.8ZM298.64 3.8L298.232 2.528L295.064 3.656L295.16 0.271999H293.84L293.912 3.656L290.744 2.528L290.36 3.8L293.552 4.784L291.512 7.472L292.592 8.24L294.488 5.456L296.384 8.24L297.464 7.472L295.424 4.784L298.64 3.8ZM308.296 3.8L307.888 2.528L304.72 3.656L304.816 0.271999H303.496L303.568 3.656L300.4 2.528L300.016 3.8L303.208 4.784L301.168 7.472L302.248 8.24L304.144 5.456L306.04 8.24L307.12 7.472L305.08 4.784L308.296 3.8ZM317.952 3.8L317.544 2.528L314.376 3.656L314.472 0.271999H313.152L313.224 3.656L310.056 2.528L309.672 3.8L312.864 4.784L310.824 7.472L311.904 8.24L313.8 5.456L315.696 8.24L316.776 7.472L314.736 4.784L317.952 3.8ZM327.608 3.8L327.2 2.528L324.032 3.656L324.128 0.271999H322.808L322.88 3.656L319.712 2.528L319.328 3.8L322.52 4.784L320.48 7.472L321.56 8.24L323.456 5.456L325.352 8.24L326.432 7.472L324.392 4.784L327.608 3.8ZM337.265 3.8L336.857 2.528L333.689 3.656L333.785 0.271999H332.465L332.537 3.656L329.369 2.528L328.985 3.8L332.177 4.784L330.137 7.472L331.217 8.24L333.113 5.456L335.009 8.24L336.089 7.472L334.049 4.784L337.265 3.8ZM346.921 3.8L346.513 2.528L343.345 3.656L343.441 0.271999H342.121L342.193 3.656L339.025 2.528L338.641 3.8L341.833 4.784L339.793 7.472L340.873 8.24L342.769 5.456L344.665 8.24L345.745 7.472L343.705 4.784L346.921 3.8ZM356.577 3.8L356.169 2.528L353.001 3.656L353.097 0.271999H351.777L351.849 3.656L348.681 2.528L348.297 3.8L351.489 4.784L349.449 7.472L350.529 8.24L352.425 5.456L354.321 8.24L355.401 7.472L353.361 4.784L356.577 3.8ZM366.233 3.8L365.825 2.528L362.657 3.656L362.753 0.271999H361.433L361.505 3.656L358.337 2.528L357.953 3.8L361.145 4.784L359.105 7.472L360.185 8.24L362.081 5.456L363.977 8.24L365.057 7.472L363.017 4.784L366.233 3.8ZM375.89 3.8L375.482 2.528L372.314 3.656L372.41 0.271999H371.09L371.162 3.656L367.994 2.528L367.61 3.8L370.802 4.784L368.762 7.472L369.842 8.24L371.738 5.456L373.634 8.24L374.714 7.472L372.674 4.784L375.89 3.8ZM385.546 3.8L385.138 2.528L381.97 3.656L382.066 0.271999H380.746L380.818 3.656L377.65 2.528L377.266 3.8L380.458 4.784L378.418 7.472L379.498 8.24L381.394 5.456L383.29 8.24L384.37 7.472L382.33 4.784L385.546 3.8ZM395.202 3.8L394.794 2.528L391.626 3.656L391.722 0.271999H390.402L390.474 3.656L387.306 2.528L386.922 3.8L390.114 4.784L388.074 7.472L389.154 8.24L391.05 5.456L392.946 8.24L394.026 7.472L391.986 4.784L395.202 3.8ZM404.858 3.8L404.45 2.528L401.282 3.656L401.378 0.271999H400.058L400.13 3.656L396.962 2.528L396.578 3.8L399.77 4.784L397.73 7.472L398.81 8.24L400.706 5.456L402.602 8.24L403.682 7.472L401.642 4.784L404.858 3.8ZM414.515 3.8L414.107 2.528L410.939 3.656L411.035 0.271999H409.715L409.787 3.656L406.619 2.528L406.235 3.8L409.427 4.784L407.387 7.472L408.467 8.24L410.363 5.456L412.259 8.24L413.339 7.472L411.299 4.784L414.515 3.8ZM424.171 3.8L423.763 2.528L420.595 3.656L420.691 0.271999H419.371L419.443 3.656L416.275 2.528L415.891 3.8L419.083 4.784L417.043 7.472L418.123 8.24L420.019 5.456L421.915 8.24L422.995 7.472L420.955 4.784L424.171 3.8ZM433.827 3.8L433.419 2.528L430.251 3.656L430.347 0.271999H429.027L429.099 3.656L425.931 2.528L425.547 3.8L428.739 4.784L426.699 7.472L427.779 8.24L429.675 5.456L431.571 8.24L432.651 7.472L430.611 4.784L433.827 3.8ZM443.483 3.8L443.075 2.528L439.907 3.656L440.003 0.271999H438.683L438.755 3.656L435.587 2.528L435.203 3.8L438.395 4.784L436.355 7.472L437.435 8.24L439.331 5.456L441.227 8.24L442.307 7.472L440.267 4.784L443.483 3.8ZM453.14 3.8L452.732 2.528L449.564 3.656L449.66 0.271999H448.34L448.412 3.656L445.244 2.528L444.86 3.8L448.052 4.784L446.012 7.472L447.092 8.24L448.988 5.456L450.884 8.24L451.964 7.472L449.924 4.784L453.14 3.8ZM462.796 3.8L462.388 2.528L459.22 3.656L459.316 0.271999H457.996L458.068 3.656L454.9 2.528L454.516 3.8L457.708 4.784L455.668 7.472L456.748 8.24L458.644 5.456L460.54 8.24L461.62 7.472L459.58 4.784L462.796 3.8ZM472.452 3.8L472.044 2.528L468.876 3.656L468.972 0.271999H467.652L467.724 3.656L464.556 2.528L464.172 3.8L467.364 4.784L465.324 7.472L466.404 8.24L468.3 5.456L470.196 8.24L471.276 7.472L469.236 4.784L472.452 3.8ZM482.108 3.8L481.7 2.528L478.532 3.656L478.628 0.271999H477.308L477.38 3.656L474.212 2.528L473.828 3.8L477.02 4.784L474.98 7.472L476.06 8.24L477.956 5.456L479.852 8.24L480.932 7.472L478.892 4.784L482.108 3.8ZM491.765 3.8L491.357 2.528L488.189 3.656L488.285 0.271999H486.965L487.037 3.656L483.869 2.528L483.485 3.8L486.677 4.784L484.637 7.472L485.717 8.24L487.613 5.456L489.509 8.24L490.589 7.472L488.549 4.784L491.765 3.8ZM501.421 3.8L501.013 2.528L497.845 3.656L497.941 0.271999H496.621L496.693 3.656L493.525 2.528L493.141 3.8L496.333 4.784L494.293 7.472L495.373 8.24L497.269 5.456L499.165 8.24L500.245 7.472L498.205 4.784L501.421 3.8ZM511.077 3.8L510.669 2.528L507.501 3.656L507.597 0.271999H506.277L506.349 3.656L503.181 2.528L502.797 3.8L505.989 4.784L503.949 7.472L505.029 8.24L506.925 5.456L508.821 8.24L509.901 7.472L507.861 4.784L511.077 3.8ZM520.733 3.8L520.325 2.528L517.157 3.656L517.253 0.271999H515.933L516.005 3.656L512.837 2.528L512.453 3.8L515.645 4.784L513.605 7.472L514.685 8.24L516.581 5.456L518.477 8.24L519.557 7.472L517.517 4.784L520.733 3.8ZM530.39 3.8L529.982 2.528L526.814 3.656L526.91 0.271999H525.59L525.662 3.656L522.494 2.528L522.11 3.8L525.302 4.784L523.262 7.472L524.342 8.24L526.238 5.456L528.134 8.24L529.214 7.472L527.174 4.784L530.39 3.8ZM540.046 3.8L539.638 2.528L536.47 3.656L536.566 0.271999H535.246L535.318 3.656L532.15 2.528L531.766 3.8L534.958 4.784L532.918 7.472L533.998 8.24L535.894 5.456L537.79 8.24L538.87 7.472L536.83 4.784L540.046 3.8ZM549.702 3.8L549.294 2.528L546.126 3.656L546.222 0.271999H544.902L544.974 3.656L541.806 2.528L541.422 3.8L544.614 4.784L542.574 7.472L543.654 8.24L545.55 5.456L547.446 8.24L548.526 7.472L546.486 4.784L549.702 3.8ZM559.358 3.8L558.95 2.528L555.782 3.656L555.878 0.271999H554.558L554.63 3.656L551.462 2.528L551.078 3.8L554.27 4.784L552.23 7.472L553.31 8.24L555.206 5.456L557.102 8.24L558.182 7.472L556.142 4.784L559.358 3.8ZM569.015 3.8L568.607 2.528L565.439 3.656L565.535 0.271999H564.215L564.287 3.656L561.119 2.528L560.735 3.8L563.927 4.784L561.887 7.472L562.967 8.24L564.863 5.456L566.759 8.24L567.839 7.472L565.799 4.784L569.015 3.8ZM578.671 3.8L578.263 2.528L575.095 3.656L575.191 0.271999H573.871L573.943 3.656L570.775 2.528L570.391 3.8L573.583 4.784L571.543 7.472L572.623 8.24L574.519 5.456L576.415 8.24L577.495 7.472L575.455 4.784L578.671 3.8ZM588.327 3.8L587.919 2.528L584.751 3.656L584.847 0.271999H583.527L583.599 3.656L580.431 2.528L580.047 3.8L583.239 4.784L581.199 7.472L582.279 8.24L584.175 5.456L586.071 8.24L587.151 7.472L585.111 4.784L588.327 3.8ZM597.983 3.8L597.575 2.528L594.407 3.656L594.503 0.271999H593.183L593.255 3.656L590.087 2.528L589.703 3.8L592.895 4.784L590.855 7.472L591.935 8.24L593.831 5.456L595.727 8.24L596.807 7.472L594.767 4.784L597.983 3.8ZM607.64 3.8L607.232 2.528L604.064 3.656L604.16 0.271999H602.84L602.912 3.656L599.744 2.528L599.36 3.8L602.552 4.784L600.512 7.472L601.592 8.24L603.488 5.456L605.384 8.24L606.464 7.472L604.424 4.784L607.64 3.8ZM617.296 3.8L616.888 2.528L613.72 3.656L613.816 0.271999H612.496L612.568 3.656L609.4 2.528L609.016 3.8L612.208 4.784L610.168 7.472L611.248 8.24L613.144 5.456L615.04 8.24L616.12 7.472L614.08 4.784L617.296 3.8ZM626.952 3.8L626.544 2.528L623.376 3.656L623.472 0.271999H622.152L622.224 3.656L619.056 2.528L618.672 3.8L621.864 4.784L619.824 7.472L620.904 8.24L622.8 5.456L624.696 8.24L625.776 7.472L623.736 4.784L626.952 3.8ZM636.608 3.8L636.2 2.528L633.032 3.656L633.128 0.271999H631.808L631.88 3.656L628.712 2.528L628.328 3.8L631.52 4.784L629.48 7.472L630.56 8.24L632.456 5.456L634.352 8.24L635.432 7.472L633.392 4.784L636.608 3.8ZM646.265 3.8L645.857 2.528L642.689 3.656L642.785 0.271999H641.465L641.537 3.656L638.369 2.528L637.985 3.8L641.177 4.784L639.137 7.472L640.217 8.24L642.113 5.456L644.009 8.24L645.089 7.472L643.049 4.784L646.265 3.8ZM655.921 3.8L655.513 2.528L652.345 3.656L652.441 0.271999H651.121L651.193 3.656L648.025 2.528L647.641 3.8L650.833 4.784L648.793 7.472L649.873 8.24L651.769 5.456L653.665 8.24L654.745 7.472L652.705 4.784L655.921 3.8ZM665.577 3.8L665.169 2.528L662.001 3.656L662.097 0.271999H660.777L660.849 3.656L657.681 2.528L657.297 3.8L660.489 4.784L658.449 7.472L659.529 8.24L661.425 5.456L663.321 8.24L664.401 7.472L662.361 4.784L665.577 3.8ZM675.233 3.8L674.825 2.528L671.657 3.656L671.753 0.271999H670.433L670.505 3.656L667.337 2.528L666.953 3.8L670.145 4.784L668.105 7.472L669.185 8.24L671.081 5.456L672.977 8.24L674.057 7.472L672.017 4.784L675.233 3.8ZM684.89 3.8L684.482 2.528L681.314 3.656L681.41 0.271999H680.09L680.162 3.656L676.994 2.528L676.61 3.8L679.802 4.784L677.762 7.472L678.842 8.24L680.738 5.456L682.634 8.24L683.714 7.472L681.674 4.784L684.89 3.8ZM694.546 3.8L694.138 2.528L690.97 3.656L691.066 0.271999H689.746L689.818 3.656L686.65 2.528L686.266 3.8L689.458 4.784L687.418 7.472L688.498 8.24L690.394 5.456L692.29 8.24L693.37 7.472L691.33 4.784L694.546 3.8ZM704.202 3.8L703.794 2.528L700.626 3.656L700.722 0.271999H699.402L699.474 3.656L696.306 2.528L695.922 3.8L699.114 4.784L697.074 7.472L698.154 8.24L700.05 5.456L701.946 8.24L703.026 7.472L700.986 4.784L704.202 3.8ZM713.858 3.8L713.45 2.528L710.282 3.656L710.378 0.271999H709.058L709.13 3.656L705.962 2.528L705.578 3.8L708.77 4.784L706.73 7.472L707.81 8.24L709.706 5.456L711.602 8.24L712.682 7.472L710.642 4.784L713.858 3.8ZM723.515 3.8L723.107 2.528L719.939 3.656L720.035 0.271999H718.715L718.787 3.656L715.619 2.528L715.235 3.8L718.427 4.784L716.387 7.472L717.467 8.24L719.363 5.456L721.259 8.24L722.339 7.472L720.299 4.784L723.515 3.8ZM733.171 3.8L732.763 2.528L729.595 3.656L729.691 0.271999H728.371L728.443 3.656L725.275 2.528L724.891 3.8L728.083 4.784L726.043 7.472L727.123 8.24L729.019 5.456L730.915 8.24L731.995 7.472L729.955 4.784L733.171 3.8ZM742.827 3.8L742.419 2.528L739.251 3.656L739.347 0.271999H738.027L738.099 3.656L734.931 2.528L734.547 3.8L737.739 4.784L735.699 7.472L736.779 8.24L738.675 5.456L740.571 8.24L741.651 7.472L739.611 4.784L742.827 3.8ZM752.483 3.8L752.075 2.528L748.907 3.656L749.003 0.271999H747.683L747.755 3.656L744.587 2.528L744.203 3.8L747.395 4.784L745.355 7.472L746.435 8.24L748.331 5.456L750.227 8.24L751.307 7.472L749.267 4.784L752.483 3.8ZM762.14 3.8L761.732 2.528L758.564 3.656L758.66 0.271999H757.34L757.412 3.656L754.244 2.528L753.86 3.8L757.052 4.784L755.012 7.472L756.092 8.24L757.988 5.456L759.884 8.24L760.964 7.472L758.924 4.784L762.14 3.8ZM771.796 3.8L771.388 2.528L768.22 3.656L768.316 0.271999H766.996L767.068 3.656L763.9 2.528L763.516 3.8L766.708 4.784L764.668 7.472L765.748 8.24L767.644 5.456L769.54 8.24L770.62 7.472L768.58 4.784L771.796 3.8ZM781.452 3.8L781.044 2.528L777.876 3.656L777.972 0.271999H776.652L776.724 3.656L773.556 2.528L773.172 3.8L776.364 4.784L774.324 7.472L775.404 8.24L777.3 5.456L779.196 8.24L780.276 7.472L778.236 4.784L781.452 3.8ZM791.108 3.8L790.7 2.528L787.532 3.656L787.628 0.271999H786.308L786.38 3.656L783.212 2.528L782.828 3.8L786.02 4.784L783.98 7.472L785.06 8.24L786.956 5.456L788.852 8.24L789.932 7.472L787.892 4.784L791.108 3.8ZM800.765 3.8L800.357 2.528L797.189 3.656L797.285 0.271999H795.965L796.037 3.656L792.869 2.528L792.485 3.8L795.677 4.784L793.637 7.472L794.717 8.24L796.613 5.456L798.509 8.24L799.589 7.472L797.549 4.784L800.765 3.8ZM810.421 3.8L810.013 2.528L806.845 3.656L806.941 0.271999H805.621L805.693 3.656L802.525 2.528L802.141 3.8L805.333 4.784L803.293 7.472L804.373 8.24L806.269 5.456L808.165 8.24L809.245 7.472L807.205 4.784L810.421 3.8ZM820.077 3.8L819.669 2.528L816.501 3.656L816.597 0.271999H815.277L815.349 3.656L812.181 2.528L811.797 3.8L814.989 4.784L812.949 7.472L814.029 8.24L815.925 5.456L817.821 8.24L818.901 7.472L816.861 4.784L820.077 3.8ZM829.733 3.8L829.325 2.528L826.157 3.656L826.253 0.271999H824.933L825.005 3.656L821.837 2.528L821.453 3.8L824.645 4.784L822.605 7.472L823.685 8.24L825.581 5.456L827.477 8.24L828.557 7.472L826.517 4.784L829.733 3.8ZM839.39 3.8L838.982 2.528L835.814 3.656L835.91 0.271999H834.59L834.662 3.656L831.494 2.528L831.11 3.8L834.302 4.784L832.262 7.472L833.342 8.24L835.238 5.456L837.134 8.24L838.214 7.472L836.174 4.784L839.39 3.8ZM849.046 3.8L848.638 2.528L845.47 3.656L845.566 0.271999H844.246L844.318 3.656L841.15 2.528L840.766 3.8L843.958 4.784L841.918 7.472L842.998 8.24L844.894 5.456L846.79 8.24L847.87 7.472L845.83 4.784L849.046 3.8ZM858.702 3.8L858.294 2.528L855.126 3.656L855.222 0.271999H853.902L853.974 3.656L850.806 2.528L850.422 3.8L853.614 4.784L851.574 7.472L852.654 8.24L854.55 5.456L856.446 8.24L857.526 7.472L855.486 4.784L858.702 3.8ZM868.358 3.8L867.95 2.528L864.782 3.656L864.878 0.271999H863.558L863.63 3.656L860.462 2.528L860.078 3.8L863.27 4.784L861.23 7.472L862.31 8.24L864.206 5.456L866.102 8.24L867.182 7.472L865.142 4.784L868.358 3.8ZM878.015 3.8L877.607 2.528L874.439 3.656L874.535 0.271999H873.215L873.287 3.656L870.119 2.528L869.735 3.8L872.927 4.784L870.887 7.472L871.967 8.24L873.863 5.456L875.759 8.24L876.839 7.472L874.799 4.784L878.015 3.8ZM887.671 3.8L887.263 2.528L884.095 3.656L884.191 0.271999H882.871L882.943 3.656L879.775 2.528L879.391 3.8L882.583 4.784L880.543 7.472L881.623 8.24L883.519 5.456L885.415 8.24L886.495 7.472L884.455 4.784L887.671 3.8ZM897.327 3.8L896.919 2.528L893.751 3.656L893.847 0.271999H892.527L892.599 3.656L889.431 2.528L889.047 3.8L892.239 4.784L890.199 7.472L891.279 8.24L893.175 5.456L895.071 8.24L896.151 7.472L894.111 4.784L897.327 3.8ZM906.983 3.8L906.575 2.528L903.407 3.656L903.503 0.271999H902.183L902.255 3.656L899.087 2.528L898.703 3.8L901.895 4.784L899.855 7.472L900.935 8.24L902.831 5.456L904.727 8.24L905.807 7.472L903.767 4.784L906.983 3.8ZM916.64 3.8L916.232 2.528L913.064 3.656L913.16 0.271999H911.84L911.912 3.656L908.744 2.528L908.36 3.8L911.552 4.784L909.512 7.472L910.592 8.24L912.488 5.456L914.384 8.24L915.464 7.472L913.424 4.784L916.64 3.8ZM926.296 3.8L925.888 2.528L922.72 3.656L922.816 0.271999H921.496L921.568 3.656L918.4 2.528L918.016 3.8L921.208 4.784L919.168 7.472L920.248 8.24L922.144 5.456L924.04 8.24L925.12 7.472L923.08 4.784L926.296 3.8ZM935.952 3.8L935.544 2.528L932.376 3.656L932.472 0.271999H931.152L931.224 3.656L928.056 2.528L927.672 3.8L930.864 4.784L928.824 7.472L929.904 8.24L931.8 5.456L933.696 8.24L934.776 7.472L932.736 4.784L935.952 3.8ZM945.608 3.8L945.2 2.528L942.032 3.656L942.128 0.271999H940.808L940.88 3.656L937.712 2.528L937.328 3.8L940.52 4.784L938.48 7.472L939.56 8.24L941.456 5.456L943.352 8.24L944.432 7.472L942.392 4.784L945.608 3.8ZM955.265 3.8L954.857 2.528L951.689 3.656L951.785 0.271999H950.465L950.537 3.656L947.369 2.528L946.985 3.8L950.177 4.784L948.137 7.472L949.217 8.24L951.113 5.456L953.009 8.24L954.089 7.472L952.049 4.784L955.265 3.8ZM964.921 3.8L964.513 2.528L961.345 3.656L961.441 0.271999H960.121L960.193 3.656L957.025 2.528L956.641 3.8L959.833 4.784L957.793 7.472L958.873 8.24L960.769 5.456L962.665 8.24L963.745 7.472L961.705 4.784L964.921 3.8ZM974.577 3.8L974.169 2.528L971.001 3.656L971.097 0.271999H969.777L969.849 3.656L966.681 2.528L966.297 3.8L969.489 4.784L967.449 7.472L968.529 8.24L970.425 5.456L972.321 8.24L973.401 7.472L971.361 4.784L974.577 3.8ZM984.233 3.8L983.825 2.528L980.657 3.656L980.753 0.271999H979.433L979.505 3.656L976.337 2.528L975.953 3.8L979.145 4.784L977.105 7.472L978.185 8.24L980.081 5.456L981.977 8.24L983.057 7.472L981.017 4.784L984.233 3.8ZM993.89 3.8L993.482 2.528L990.314 3.656L990.41 0.271999H989.09L989.162 3.656L985.994 2.528L985.61 3.8L988.802 4.784L986.762 7.472L987.842 8.24L989.738 5.456L991.634 8.24L992.714 7.472L990.674 4.784L993.89 3.8ZM1003.55 3.8L1003.14 2.528L999.97 3.656L1000.07 0.271999H998.746L998.818 3.656L995.65 2.528L995.266 3.8L998.458 4.784L996.418 7.472L997.498 8.24L999.394 5.456L1001.29 8.24L1002.37 7.472L1000.33 4.784L1003.55 3.8ZM1013.2 3.8L1012.79 2.528L1009.63 3.656L1009.72 0.271999H1008.4L1008.47 3.656L1005.31 2.528L1004.92 3.8L1008.11 4.784L1006.07 7.472L1007.15 8.24L1009.05 5.456L1010.95 8.24L1012.03 7.472L1009.99 4.784L1013.2 3.8ZM1022.86 3.8L1022.45 2.528L1019.28 3.656L1019.38 0.271999H1018.06L1018.13 3.656L1014.96 2.528L1014.58 3.8L1017.77 4.784L1015.73 7.472L1016.81 8.24L1018.71 5.456L1020.6 8.24L1021.68 7.472L1019.64 4.784L1022.86 3.8ZM1032.51 3.8L1032.11 2.528L1028.94 3.656L1029.03 0.271999H1027.71L1027.79 3.656L1024.62 2.528L1024.23 3.8L1027.43 4.784L1025.39 7.472L1026.47 8.24L1028.36 5.456L1030.26 8.24L1031.34 7.472L1029.3 4.784L1032.51 3.8ZM1042.17 3.8L1041.76 2.528L1038.59 3.656L1038.69 0.271999H1037.37L1037.44 3.656L1034.27 2.528L1033.89 3.8L1037.08 4.784L1035.04 7.472L1036.12 8.24L1038.02 5.456L1039.91 8.24L1040.99 7.472L1038.95 4.784L1042.17 3.8ZM1051.83 3.8L1051.42 2.528L1048.25 3.656L1048.35 0.271999H1047.03L1047.1 3.656L1043.93 2.528L1043.55 3.8L1046.74 4.784L1044.7 7.472L1045.78 8.24L1047.68 5.456L1049.57 8.24L1050.65 7.472L1048.61 4.784L1051.83 3.8ZM1061.48 3.8L1061.08 2.528L1057.91 3.656L1058 0.271999H1056.68L1056.76 3.656L1053.59 2.528L1053.2 3.8L1056.4 4.784L1054.36 7.472L1055.44 8.24L1057.33 5.456L1059.23 8.24L1060.31 7.472L1058.27 4.784L1061.48 3.8ZM1071.14 3.8L1070.73 2.528L1067.56 3.656L1067.66 0.271999H1066.34L1066.41 3.656L1063.24 2.528L1062.86 3.8L1066.05 4.784L1064.01 7.472L1065.09 8.24L1066.99 5.456L1068.88 8.24L1069.96 7.472L1067.92 4.784L1071.14 3.8ZM1080.8 3.8L1080.39 2.528L1077.22 3.656L1077.32 0.271999H1076L1076.07 3.656L1072.9 2.528L1072.52 3.8L1075.71 4.784L1073.67 7.472L1074.75 8.24L1076.64 5.456L1078.54 8.24L1079.62 7.472L1077.58 4.784L1080.8 3.8ZM1090.45 3.8L1090.04 2.528L1086.88 3.656L1086.97 0.271999H1085.65L1085.72 3.656L1082.56 2.528L1082.17 3.8L1085.36 4.784L1083.32 7.472L1084.4 8.24L1086.3 5.456L1088.2 8.24L1089.28 7.472L1087.24 4.784L1090.45 3.8ZM1100.11 3.8L1099.7 2.528L1096.53 3.656L1096.63 0.271999H1095.31L1095.38 3.656L1092.21 2.528L1091.83 3.8L1095.02 4.784L1092.98 7.472L1094.06 8.24L1095.96 5.456L1097.85 8.24L1098.93 7.472L1096.89 4.784L1100.11 3.8ZM1109.76 3.8L1109.36 2.528L1106.19 3.656L1106.28 0.271999H1104.96L1105.04 3.656L1101.87 2.528L1101.48 3.8L1104.68 4.784L1102.64 7.472L1103.72 8.24L1105.61 5.456L1107.51 8.24L1108.59 7.472L1106.55 4.784L1109.76 3.8Z" fill="#8BC500"/>
</svg>
